<svg xmlns="http://www.w3.org/2000/svg" viewBox="1419.844 248.409 255.559 228.688" xmlns:v="https://vecta.io/nano"><g stroke-width="2"><ellipse cx="1588" cy="369" rx="13.5" ry="41.5" fill="none" stroke="#a00" stroke-linecap="round" stroke-linejoin="round" stroke-dasharray="4"/><path d="M1667.7 276.39a45.55 45.55 0 0 0-17.24 10.836l-.711.711-.93-.274c-5.368-1.642-11.105-1.642-16.473 0l-.93.274-.711-.711c-4.943-4.943-10.953-8.688-17.568-10.946-1.811-.578-3.793-.074-5.108 1.299s-1.732 3.375-1.076 5.159l6.841 20.578.164.493-.164.493a24.02 24.02 0 0 0-.93 5.254c-.091 1.714-.073 3.433.055 5.145l.055.438-2.574 5.527a12.5 12.5 0 0 1-9.632 7.115l-63.212 9.742c-24.738 4.324-40.992 8.1-48.271 11.11l-1.259.547-.766-1.149a42.95 42.95 0 0 0-17.73-15.322c-11.712-5.473-31.25-17.4-30.922-36.012.328-16.528 6.622-26.325 11.822-31.633 1.829-1.854 2.784-4.398 2.628-6.997s-1.41-5.01-3.449-6.631a8.6 8.6 0 0 0-5.638-2.027 9 9 0 0 0-7.005 3.284c-12.424 14.722-15.379 35.136-16.036 46.027-.671 10.716 2.686 21.296 9.414 29.663 5.617 6.955 12.53 12.755 20.356 17.076 8.721 4.974 15.147 13.167 17.9 22.822a10.96 10.96 0 0 1 .383 2.955l-.109 4.269a61.84 61.84 0 0 1-.493 6.4l-2.9 20.633c-1.298 8.58-6.688 15.992-14.45 19.871a11.85 11.85 0 0 0-6.294 12.1l5.254 39.35a2.48 2.48 0 0 0 2.463 2.134h21.728a2.8 2.8 0 0 0 1.532-.438c.864-.595 1.258-1.67.985-2.682l-.219-.821c-1.51-5.508-5.749-9.851-11.219-11.493l-1.04-.328-1.149-9.468a6.85 6.85 0 0 1 4.269-7.224l23.041-9.14-.055 2.463c.009.257-.01.513-.055.766v.055l-.438 10.4a13.66 13.66 0 0 0 3.886 9.906l17.4 17.4a2.4 2.4 0 0 0 1.751.712h25.175c1.328-.026 2.407-1.081 2.463-2.408.408-6.652-4.351-12.505-10.946-13.463l-7.936-1.2-3.388-5.321c-1.81-2.854-1.747-6.511.161-9.3l19.976-29.225.547-.164c7.17-2.244 31.8-9.195 46.739-5.692l1.149.274.109 1.149c.177 1.766.659 3.488 1.423 5.09l28.623 58.834c.408.837 1.258 1.368 2.189 1.368h19.484c.772.024 1.511-.317 1.995-.919s.657-1.397.468-2.146l-1.313-5.309a13.01 13.01 0 0 0-8.811-9.359l-1.314-.383 4.926-42.853a16.61 16.61 0 0 1 1.7-5.528c2.955-5.692 8.811-16.638 14.5-25.832 4.36-7.107 7.106-15.084 8.045-23.369 1.478-12.807 4.269-28.9 5.09-33.549l.055-.383.219-.274c2.955-4.214 4.324-9.906 3.941-16.528-.109-1.781-.421-3.544-.93-5.254l-.164-.493.164-.493 6.9-20.742a4.98 4.98 0 0 0-1.478-5.309c-1.334-1.221-3.245-1.581-4.932-.93zm-202.166 162.546a11.75 11.75 0 0 0-7.334 12.373l1.368 11.329a2.44 2.44 0 0 0 2.134 2.134c2.695.344 5.198 1.575 7.115 3.5l2.682 2.791h-16.856l-4.98-37.216a6.96 6.96 0 0 1 3.667-7.06 32.04 32.04 0 0 0 16.8-22.111l.711-3.284 2.189 2.572c7.443 8.811 12.807 17.13 15.488 24.081l.6 1.532zm192.209-104.259c-1.149 6.786-2.682 16.692-3.612 25.066a52.5 52.5 0 0 1-7.331 21.344c-5.747 9.359-11.657 20.414-14.667 26.161a21.25 21.25 0 0 0-2.244 7.279l-3.451 29.882-7.005-34.7a10.14 10.14 0 0 1 1.751-7.99l11.329-15.379c6.011-8.139 8.763-18.231 7.717-28.295-.065-.646-.384-1.24-.887-1.651s-1.149-.604-1.795-.538c-.645.052-1.24.369-1.642.876-.423.501-.621 1.154-.547 1.806.937 8.857-1.485 17.743-6.786 24.9l-11.329 15.379a15.04 15.04 0 0 0-2.627 11.876l10.07 49.968a2.46 2.46 0 0 0 2.408 1.97c3.813-.012 7.139 2.59 8.045 6.294l.547 2.244H1620.8l-27.965-57.46c-.827-1.717-1.15-3.634-.93-5.528l4.05-36.121c.074-.652-.124-1.305-.547-1.806-.422-.492-1.003-.821-1.642-.93-.654-.076-1.311.113-1.824.524s-.842 1.011-.912 1.665l-3.722 33.166-1.751-.328c-13.244-2.518-31.688 1.532-41.539 4.159l-2.408.657.383-2.463c.793-5.182-.572-10.463-3.776-14.613l-6.02-7.772a2.45 2.45 0 0 0-3.448-.438c-.54.381-.881.983-.93 1.642a2.6 2.6 0 0 0 .493 1.806l6.02 7.772c3.787 4.882 3.986 11.651.493 16.747l-20.417 29.715c-3.022 4.418-3.108 10.216-.219 14.722l4 6.239c.378.597 1 .997 1.7 1.095l9.03 1.368a7.95 7.95 0 0 1 5.473 3.5l1.7 2.518h-22.122l-16.693-16.69c-1.633-1.66-2.522-3.911-2.463-6.239l.438-10.234c.383-5.418-1.642-17.513-19.265-37.982-1.63-1.881-2.507-4.298-2.463-6.786l.438-23.534c-.055-.383-.328-1.642-.6-2.627-3.13-10.862-10.378-20.073-20.2-25.668-23.913-13.792-28.072-30.536-27.362-42.197 1.479-23.971 9.962-37.325 14.887-43.181a4.27 4.27 0 0 1 7.5 2.518 4.12 4.12 0 0 1-1.2 3.229c-5.8 5.965-12.861 16.857-13.19 34.972-.438 21.344 20.961 34.589 33.768 40.554a38.34 38.34 0 0 1 17.349 16.364s.164.274.219.383a2.55 2.55 0 0 0 1.642 1.149c.697.12 1.412-.059 1.97-.493 5.905-4.761 49.141-13.134 112.737-21.891a17.3 17.3 0 0 0 12.04-7.5l1.423-2.08 1.314 2.134a19.67 19.67 0 0 0 2.408 3.12c3.831 3.941 9.413 6.075 16.09 6.075h10.891a25.71 25.71 0 0 0 9.851-1.532l2.682-.985zm10.836-50.46l-6.239 18.717v.055c-.22.545-.22 1.155 0 1.7.634 1.663.985 3.421 1.04 5.2.383 6.513-1.149 11.712-4.378 15.051-2.9 3.01-7.224 4.543-12.588 4.543H1635.3c-5.582.109-10.125-1.478-13.08-4.543-3.229-3.338-4.761-8.538-4.378-15.051.092-1.775.442-3.526 1.04-5.2.22-.545.22-1.155 0-1.7l-.055-.109-6.239-18.717-1.149-3.5 3.393 1.478a42.95 42.95 0 0 1 13.956 10.234 2.47 2.47 0 0 0 2.846.711 23.04 23.04 0 0 1 17.787 0 2.47 2.47 0 0 0 2.846-.711c3.911-4.345 8.682-7.83 14.011-10.234l3.393-1.478z" stroke="#ffc95a"/></g><path d="M1582.088 331.306s-17.463 26.35-.465 75.329" fill="none" stroke="#f00" stroke-linecap="round" stroke-miterlimit="10" stroke-width="5"/></svg>
